{"title":"Kurosawas_Dreams-1990","uid":6295225,"size":997513297,"categoryP":"video","categoryS":"movies","magnet":"?xt=urn:btih:62abd3a52ce6486c6a43bd2b3146a40e6f9783e8&amp;dn=Kurosawas_Dreams-1990&amp;tr=udp%3A%2F%2Ftracker.openbittorrent.com%3A80&amp;tr=udp%3A%2F%2Fopen.demonii.com%3A1337&amp;tr=udp%3A%2F%2Ftracker.coppersurfer.tk%3A6969&amp;tr=udp%3A%2F%2Fexodus.desync.com%3A6969","seeders":1,"leechers":0,"uploader":"zbig169","files":-1,"time":1301965257,"description":"\nAkira Kurosawa's Dreams (1990)\n\nsource for RIP:\nRegion 1 retail DVD\nASIN: B00007G1ZC &lt;a href=&quot;\nhttp://www.amazon.com/Akira-Kurosawas-Dreams-Terao/dp/B00007G1ZC&quot; rel=&quot;nofollow&quot; target=&quot;_NEW&quot;&gt;\nhttp://www.amazon.com/Akira-Kurosawas-Dreams-Terao/dp/B00007G1ZC&lt;/a&gt;\n\nConverted to PAL (R2, 25.000 fps)\nThe AVI file fits on CD-R870M \nThe video quality is the same as the other release\navailable on here, but the size of AVI is much smaller.\nA lot of details and two samples for comparision can be\nfound in Samples directory of this torrent.\n\nDetailed description of the movie is here: &lt;a href=&quot;\nhttp://en.wikipedia.org/wiki/Dreams_(1990_film)&quot; rel=&quot;nofollow&quot; target=&quot;_NEW&quot;&gt;\nhttp://en.wikipedia.org/wiki/Dreams_(1990_film)&lt;/a&gt;\n\n===============================================\nGeneral\nComplete name                    : Kurosawas_Dreams.avi\nFormat                           : AVI\nFormat/Info                      : Audio Video Interleave\nFile size                        : 837 MiB\nDuration                         : 1h 54mn\nOverall bit rate                 : 1 020 Kbps\nWriting application              : VirtualDubMod 1.5.10.2 (build 2542/release)\nWriting library                  : VirtualDubMod build 2542/release\n\nVideo\nID                               : 0\nFormat                           : MPEG-4 Visual\nFormat settings, BVOP            : 1\nFormat settings, QPel            : No\nFormat settings, GMC             : No warppoints\nFormat settings, Matrix          : Default (H.263)\nMuxing mode                      : Packed bitstream\nCodec ID                         : DX50\nCodec ID/Hint                    : DivX 5\nDuration                         : 1h 54mn\nBit rate                         : 850 Kbps\nWidth                            : 656 pixels\nHeight                           : 368 pixels\nDisplay aspect ratio             : 16:9\nFrame rate                       : 25.000 fps\nColor space                      : YUV\nChroma subsampling               : 4:2:0\nBit depth                        : 8 bits\nScan type                        : Progressive\nCompression mode                 : Lossy\nBits/(Pixel*Frame)               : 0.141\nStream size                      : 698 MiB (83%)\nWriting library                  : DivX 6.7.0 (UTC 2007-09-20)\n\nAudio\nID                               : 1\nFormat                           : MPEG Audio\nFormat version                   : Version 1\nFormat profile                   : Layer 3\nMode                             : Joint stereo\nMode extension                   : MS Stereo\nCodec ID                         : 55\nCodec ID/Hint                    : MP3\nDuration                         : 1h 54mn\nBit rate mode                    : Constant\nBit rate                         : 160 Kbps\nChannel(s)                       : 2 channels\nSampling rate                    : 44.1 KHz\nCompression mode                 : Lossy\nStream size                      : 131 MiB (16%)\nAlignment                        : Split accross interleaves\nInterleave, duration             : 40 ms (1.00 video frame)\nInterleave, preload duration     : 500 ms\n\n\n\n\n","torrent":{"xt":"urn:btih:62abd3a52ce6486c6a43bd2b3146a40e6f9783e8","amp;dn":"Kurosawas_Dreams-1990","amp;tr":["udp%3A%2F%2Ftracker.openbittorrent.com%3A80","udp%3A%2F%2Fopen.demonii.com%3A1337","udp%3A%2F%2Ftracker.coppersurfer.tk%3A6969","udp%3A%2F%2Fexodus.desync.com%3A6969"],"infoHash":"62abd3a52ce6486c6a43bd2b3146a40e6f9783e8","infoHashBuffer":{"type":"Buffer","data":[98,171,211,165,44,230,72,108,106,67,189,43,49,70,164,14,111,151,131,232]},"announce":[],"urlList":[]}}